# xmcd
#
# Track frame offsets: 
#        150
#        26552
#        48797
#        70668
#        93615
#        111035
#        135608
#        159754
#        180855
#        209567
#        228752
#        251038
#
# Disc length: 3639 seconds
#
# Revision: 0
# Processed by: cddbd v1.5.2PL0 Copyright (c) Steve Scherf et al.
# Submitted via: ExactAudioCopyFreeDBPlugin 1.0
#
DISCID=920e350c
DTITLE=Sarnii Ayalguu D.Tsendjav - Sarnii Ayalguu D.Tsendjav
DYEAR=2014
DGENRE=
TTITLE0=Hairiin deed hani mini 1
TTITLE1=Uggui mordson chii mini 2
TTITLE2=Bii jargaltai 3
TTITLE3=Zuudend urgasan ter mini 4
TTITLE4=Hairiin mungun tsas 5
TTITLE5=Amin ur 6
TTITLE6=Chamaigaa sanahaar 7
TTITLE7=Denduu dotono and 8
TTITLE8=Gan uzgiin ezed 9
TTITLE9=Sanah l yum chamaigaa 10
TTITLE10=Ezen chingisiin eh oron 11
TTITLE11=Selenge press suld duu 12
EXTD=
EXTT0=
EXTT1=
EXTT2=
EXTT3=
EXTT4=
EXTT5=
EXTT6=
EXTT7=
EXTT8=
EXTT9=
EXTT10=
EXTT11=
PLAYORDER=
